<?xml version="1.0" encoding="utf-8"?>
<!-- Generator: Adobe Illustrator 18.0.0, SVG Export Plug-In . SVG Version: 6.00 Build 0)  -->
<!DOCTYPE svg PUBLIC "-//W3C//DTD SVG 1.1//EN" "http://www.w3.org/Graphics/SVG/1.1/DTD/svg11.dtd" [
	<!ENTITY ns_flows "http://ns.adobe.com/Flows/1.0/">
	<!ENTITY ns_extend "http://ns.adobe.com/Extensibility/1.0/">
	<!ENTITY ns_ai "http://ns.adobe.com/AdobeIllustrator/10.0/">
	<!ENTITY ns_graphs "http://ns.adobe.com/Graphs/1.0/">
]>
<svg version="1.1" id="Layer_1" xmlns:x="&ns_extend;" xmlns:i="&ns_ai;" xmlns:graph="&ns_graphs;"
	 xmlns="http://www.w3.org/2000/svg" xmlns:xlink="http://www.w3.org/1999/xlink" xmlns:a="http://ns.adobe.com/AdobeSVGViewerExtensions/3.0/"
	 x="0px" y="0px" viewBox="0 0 1400 980" enable-background="new 0 0 1400 980" xml:space="preserve">
<g>
	<rect fill="#FFFFFF" width="1400" height="980"/>
	<g>
		<g>
			<path fill="#393A3A" d="M275.5,269.2C275.5,269.2,275.5,269.2,275.5,269.2c-8,0-9.8-9.6-11.8-20.7c-0.6-3.2-1.2-6.4-2-9.7
				c-2.3-10.1-10.6-11.2-14.1-11.2c-0.4,0-0.7,0-0.7,0c-0.2,0-0.4,0-0.6,0c0,0-0.3,0-0.7,0c-3.5,0-11.7,1.1-14.1,11.2
				c-0.8,3.3-1.4,6.6-2,9.8c-2,11.1-3.8,20.7-11.8,20.7c-0.4,0-0.8,0-1.2-0.1c-8.9-1.2-13.9-18.6-19.2-39.6l-0.6-2.2
				c-0.2-1-0.6-2-0.9-3.1c-1.1-3.2-2.6-6.4-4-9.5c-2.4-5.1-4.8-10.4-6-16.3c-1.8-8.6-4.9-30.1,5.9-42.7c6.2-7.2,16.7-11.5,28.2-11.5
				c2,0,3.9,0.1,5.8,0.4c4.6,0.6,8.4,2.3,11.7,3.8c3.6,1.6,6.7,3,10.2,3c2.2,0,4.5-0.6,7-1.8c7.1-3.4,13.2-4.9,19.6-4.9
				c2.3,0,4.7,0.2,7.3,0.6c11,1.7,19.7,7.6,23.9,16.1c1.8,3.6,3,7.8,3.7,12.4c1.4,10,0,22.3-3.8,32.8c-1.1,3.1-2.6,6.1-4,9
				c-1.9,3.9-3.7,7.7-4.7,11.6l-0.6,2.2c-5.3,20.9-10.3,38.4-19.2,39.6C276.3,269.1,275.9,269.2,275.5,269.2z M247.6,221.5
				c7.9,0,17.2,4.2,19.9,15.9c0.8,3.5,1.4,6.8,2,10c1.4,7.8,2.9,15.8,5.9,15.8c0.1,0,0.3,0,0.4,0c0.5-0.1,3.4-1,7.5-11.9
				c2.7-7.3,4.9-16.1,6.7-23.2l0.6-2.2c1.2-4.6,3.2-8.7,5.1-12.8c1.4-2.9,2.7-5.6,3.7-8.4c3.5-9.7,4.8-20.9,3.5-30
				c-0.6-4-1.6-7.5-3.1-10.6c-4.6-9.2-14.2-12-19.5-12.9c-2.2-0.4-4.3-0.5-6.3-0.5c-5.6,0-10.6,1.3-17,4.4c-3.3,1.6-6.5,2.4-9.6,2.4
				c0,0,0,0,0,0c-4.7,0-8.7-1.8-12.6-3.5c-3.1-1.4-6.4-2.8-10.1-3.4c-1.6-0.2-3.3-0.3-4.9-0.3c-9.6,0-18.6,3.6-23.6,9.4
				c-9.3,10.8-5.8,31.5-4.6,37.5c1.1,5.3,3.3,10,5.6,15c1.5,3.2,3,6.5,4.2,10c0.4,1.2,0.8,2.4,1.1,3.6l0.6,2.2
				c1.8,7.1,4,15.9,6.7,23.2c4.1,10.9,6.9,11.8,7.5,11.9c0.1,0,0.3,0,0.4,0c3,0,4.5-8,5.9-15.8c0.6-3.2,1.2-6.6,2-10
				c2.7-11.7,12.1-15.9,19.9-15.9c0.4,0,0.8,0,1,0C246.9,221.5,247.2,221.5,247.6,221.5z"/>
			<path fill="#393A3A" d="M200,187c-1.5,0-2.8-1.2-3-2.7c-0.8-8.7,0.8-15.5,4.8-20.1c4.5-5.2,10.5-5.5,10.7-5.5
				c1.6-0.1,3.1,1.2,3.1,2.9c0.1,1.6-1.2,3-2.8,3.1c-0.2,0-3.8,0.3-6.6,3.6c-2.8,3.3-3.9,8.5-3.3,15.5c0.2,1.6-1.1,3.1-2.7,3.3
				C200.2,187,200.1,187,200,187z"/>
			<g>
				<path fill="#393A3A" d="M332.3,131.2h-7.1c-1.7,0-3-1.3-3-3s1.3-3,3-3h7.1c1.7,0,3,1.3,3,3S334,131.2,332.3,131.2z"/>
				<path fill="#393A3A" d="M313.6,131.2h-7.1c-1.7,0-3-1.3-3-3s1.3-3,3-3h7.1c1.7,0,3,1.3,3,3S315.3,131.2,313.6,131.2z"/>
				<path fill="#393A3A" d="M319.4,144.1c-1.7,0-3-1.3-3-3V134c0-1.7,1.3-3,3-3s3,1.3,3,3v7.1C322.4,142.8,321.1,144.1,319.4,144.1z
					"/>
				<path fill="#393A3A" d="M319.4,125.4c-1.7,0-3-1.3-3-3v-7.1c0-1.7,1.3-3,3-3s3,1.3,3,3v7.1C322.4,124,321.1,125.4,319.4,125.4z"
					/>
			</g>
			<g>
				<path fill="#393A3A" d="M156.7,199.9h-7.1c-1.7,0-3-1.3-3-3s1.3-3,3-3h7.1c1.7,0,3,1.3,3,3S158.4,199.9,156.7,199.9z"/>
				<path fill="#393A3A" d="M138,199.9h-7.1c-1.7,0-3-1.3-3-3s1.3-3,3-3h7.1c1.7,0,3,1.3,3,3S139.6,199.9,138,199.9z"/>
				<path fill="#393A3A" d="M143.8,212.9c-1.7,0-3-1.3-3-3v-7.1c0-1.7,1.3-3,3-3s3,1.3,3,3v7.1C146.8,211.5,145.5,212.9,143.8,212.9
					z"/>
				<path fill="#393A3A" d="M143.8,194.1c-1.7,0-3-1.3-3-3V184c0-1.7,1.3-3,3-3s3,1.3,3,3v7.1C146.8,192.8,145.5,194.1,143.8,194.1z
					"/>
			</g>
		</g>
		<g>
			<path fill="#393A3A" d="M506.7,269.2c-0.4,0-0.9,0-1.4-0.1c-6.1-0.8-10.9-9.1-16.1-27.6c-0.4-1.6,0.5-3.3,2.1-3.7
				c1.6-0.4,3.3,0.5,3.7,2.1c5.9,21,10,23.1,11.1,23.3c3.1,0.4,4.5-5.7,6.3-15.8c0.6-3.2,1.2-6.6,2-10c3.2-13.6,14.9-16.3,20.9-15.8
				c6-0.5,17.8,2.3,20.9,15.8c0.8,3.5,1.4,6.8,2,10c1.9,10.1,3.2,16.2,6.3,15.8c0.5-0.1,3.4-1,7.5-11.9c2.7-7.3,4.9-16.1,6.7-23.2
				l0.6-2.2c1.2-4.6,3.2-8.7,5.1-12.8c1.4-2.9,2.7-5.6,3.7-8.4c0.6-1.6,2.3-2.4,3.8-1.8c1.6,0.6,2.4,2.3,1.8,3.8
				c-1.1,3.1-2.6,6.1-4,9c-1.9,3.9-3.7,7.7-4.7,11.6l-0.6,2.2c-5.3,20.9-10.3,38.4-19.2,39.6c-9,1.2-11-9.4-13-20.6
				c-0.6-3.2-1.2-6.4-2-9.7c-2.8-11.9-13.6-11.3-14.8-11.2c-0.2,0-0.4,0-0.6,0c-1.2-0.1-12-0.7-14.8,11.2c-0.8,3.3-1.4,6.6-2,9.7
				C516.4,259.1,514.5,269.2,506.7,269.2z"/>
			<path fill="#393A3A" d="M480.7,210.6c-1.2,0-2.3-0.7-2.8-1.8c-1.6-3.9-2.7-7.1-3.4-10.3c-1.8-8.6-4.9-30.1,5.9-42.7
				c8.4-9.8,23.1-12.6,33.9-11.1c4.6,0.6,8.4,2.3,11.7,3.8c5.9,2.6,10.2,4.5,17.2,1.2c9.6-4.6,17.4-5.9,26.9-4.3
				c11,1.7,19.7,7.6,23.9,16.1c0.9,1.9,1.7,3.9,2.3,6.1c0.5,1.6-0.5,3.3-2.1,3.7c-1.6,0.5-3.3-0.5-3.7-2.1c-0.5-1.8-1.2-3.5-2-5.1
				c-4.6-9.2-14.2-12-19.5-12.9c-8.3-1.3-14.8-0.2-23.3,3.8c-9.5,4.5-15.9,1.7-22.2-1.1c-3.1-1.4-6.4-2.8-10.1-3.4
				c-8.9-1.3-21.7,1-28.5,9.1c-9.3,10.8-5.8,31.5-4.6,37.5c0.6,2.8,1.5,5.7,3,9.2c0.6,1.5-0.1,3.3-1.6,3.9
				C481.4,210.5,481,210.6,480.7,210.6z"/>
			<path fill="#393A3A" d="M488.8,187c-1.5,0-2.8-1.2-3-2.7c-0.8-8.7,0.8-15.5,4.8-20.1c4.5-5.2,10.5-5.5,10.7-5.5
				c1.7-0.1,3.1,1.2,3.1,2.9c0.1,1.6-1.2,3-2.8,3.1c-0.2,0-3.8,0.3-6.6,3.6c-2.8,3.3-3.9,8.5-3.3,15.5c0.2,1.6-1.1,3.1-2.7,3.3
				C489,187,488.9,187,488.8,187z"/>
			<g>
				<g>
					<path fill="#769CD1" d="M488.6,204.5c0,15.1-15.9,16.6-15.9,16.6c10.9,0,15.9,13.2,15.9,13.2s4.9-13.2,15.9-13.2
						C504.5,221.1,488.6,219.5,488.6,204.5z"/>
				</g>
			</g>
			<g>
				<g>
					<path fill="#769CD1" d="M468.4,234.6c0,7-7.4,7.7-7.4,7.7c5.1,0,7.4,6.1,7.4,6.1s2.3-6.1,7.4-6.1
						C475.7,242.3,468.4,241.6,468.4,234.6z"/>
				</g>
			</g>
			<g>
				<g>
					<path fill="#769CD1" d="M617,161.7c0,7-7.4,7.7-7.4,7.7c5.1,0,7.4,6.1,7.4,6.1s2.3-6.1,7.4-6.1
						C624.4,169.4,617,168.7,617,161.7z"/>
				</g>
			</g>
			<g>
				<g>
					<path fill="#769CD1" d="M595.2,174.1c0,10.1-10.6,11.1-10.6,11.1c7.3,0,10.6,8.8,10.6,8.8s3.3-8.8,10.6-8.8
						C605.9,185.2,595.2,184.2,595.2,174.1z"/>
				</g>
			</g>
		</g>
		<g>
			<circle fill="#769CD1" cx="231.6" cy="482.6" r="76.2"/>
			<g>
				<g>
					<path fill="#FFFFFF" d="M178.9,502.3h105.4c1.1-2.2,2.1-4.4,2.9-6.7c3.3-9,5.2-20.9,3.7-31.4c-0.6-4.1-1.7-8-3.4-11.5
						c-4.2-8.4-12.6-13-21.7-14.5c-9.5-1.5-16.7,0.1-25.1,4.1c-12.7,6.1-18.9-3.1-30.6-4.7c-10.7-1.5-24,1.6-31.2,10.1
						c-8.6,10.1-7.8,27.9-5.2,40.1C174.7,493,176.7,497.6,178.9,502.3z"/>
					<path fill="#393A3A" d="M284.3,505.3H178.9c-1.2,0-2.2-0.7-2.7-1.7c-2.3-4.9-4.4-9.8-5.5-15.2c-1.8-8.6-4.9-30.1,5.9-42.7
						c6.2-7.2,16.7-11.5,28.2-11.5c2,0,3.9,0.1,5.8,0.4c4.6,0.6,8.4,2.3,11.7,3.8c3.6,1.6,6.7,3,10.2,3c2.2,0,4.5-0.6,7-1.8
						c7.1-3.4,13.2-4.9,19.6-4.9c2.3,0,4.7,0.2,7.3,0.6c11,1.7,19.7,7.6,23.9,16.1c1.8,3.6,3,7.8,3.7,12.4c1.4,10,0,22.3-3.8,32.8
						c-0.9,2.5-2,4.9-3,7C286.5,504.7,285.4,505.3,284.3,505.3z M180.8,499.3h101.5c0.7-1.5,1.4-3.1,2-4.7c3.5-9.7,4.8-20.9,3.5-30
						c-0.6-4-1.6-7.5-3.1-10.6c-4.6-9.2-14.2-12-19.5-12.9c-2.2-0.4-4.3-0.5-6.3-0.5c-5.6,0-10.6,1.3-17,4.4
						c-3.3,1.6-6.5,2.4-9.6,2.4c-4.7,0-8.7-1.8-12.6-3.5c-3.1-1.4-6.4-2.8-10.1-3.4c-1.6-0.2-3.3-0.3-4.9-0.3
						c-9.6,0-18.6,3.6-23.6,9.4c-9.3,10.8-5.8,31.5-4.6,37.5C177.4,491.4,179,495.2,180.8,499.3z"/>
				</g>
				<path fill="#393A3A" d="M184.9,477c-1.5,0-2.8-1.2-3-2.7c-0.8-8.7,0.8-15.5,4.8-20.1c4.5-5.2,10.5-5.5,10.7-5.5
					c1.6-0.1,3.1,1.2,3.1,2.9c0.1,1.6-1.2,3-2.8,3.1c-0.2,0-3.8,0.3-6.6,3.6c-2.8,3.3-3.9,8.5-3.3,15.5c0.2,1.7-1.1,3.1-2.7,3.3
					C185.1,477,185,477,184.9,477z"/>
				<g>
					<rect x="171.8" y="502.3" fill="#FFFFFF" width="119.5" height="17"/>
					<path fill="#393A3A" d="M291.4,522.3H171.8c-1.7,0-3-1.3-3-3v-17c0-1.7,1.3-3,3-3h119.5c1.7,0,3,1.3,3,3v17
						C294.4,521,293,522.3,291.4,522.3z M174.8,516.3h113.5v-11H174.8V516.3z"/>
				</g>
				<path fill="#393A3A" d="M272,539.8h-80.9c-1.7,0-3-1.3-3-3s1.3-3,3-3H272c1.7,0,3,1.3,3,3S273.7,539.8,272,539.8z"/>
				<path fill="#393A3A" d="M267.2,557.6H196c-1.7,0-3-1.3-3-3s1.3-3,3-3h71.3c1.7,0,3,1.3,3,3S268.9,557.6,267.2,557.6z"/>
				<path fill="#393A3A" d="M252.3,574.9h-41.5c-1.7,0-3-1.3-3-3s1.3-3,3-3h41.5c1.7,0,3,1.3,3,3S254,574.9,252.3,574.9z"/>
			</g>
			<g>
				<path fill="#393A3A" d="M174.8,551.6c-0.3,0-0.7-0.1-1-0.4c-0.8-0.7-1.5-1.3-2.3-2c-0.6-0.6-0.7-1.5-0.1-2.1
					c0.6-0.6,1.5-0.7,2.1-0.1c0.7,0.7,1.5,1.3,2.2,1.9c0.6,0.5,0.7,1.5,0.2,2.1C175.6,551.4,175.2,551.6,174.8,551.6z"/>
				<path fill="#393A3A" d="M168.3,545.4c-0.4,0-0.8-0.2-1.1-0.5c-1.4-1.4-2.7-3-4-4.5c-0.5-0.6-0.5-1.6,0.2-2.1
					c0.6-0.5,1.6-0.5,2.1,0.2c1.2,1.5,2.6,2.9,3.9,4.3c0.6,0.6,0.6,1.5,0,2.1C169,545.3,168.6,545.4,168.3,545.4z M295.5,544.9
					c-0.4,0-0.7-0.1-1-0.4c-0.6-0.6-0.6-1.5-0.1-2.1c1.3-1.4,2.6-2.9,3.9-4.4c0.5-0.6,1.5-0.7,2.1-0.2c0.6,0.5,0.7,1.5,0.2,2.1
					c-1.3,1.5-2.6,3.1-4,4.5C296.3,544.7,295.9,544.9,295.5,544.9z M160.6,536.4c-0.5,0-0.9-0.2-1.2-0.6c-1.2-1.6-2.3-3.3-3.4-5
					c-0.4-0.7-0.2-1.6,0.5-2.1c0.7-0.4,1.6-0.2,2.1,0.5c1,1.6,2.1,3.3,3.3,4.8c0.5,0.7,0.3,1.6-0.3,2.1
					C161.3,536.3,160.9,536.4,160.6,536.4z M303,535.7c-0.3,0-0.6-0.1-0.9-0.3c-0.7-0.5-0.8-1.4-0.3-2.1c1.1-1.6,2.2-3.2,3.2-4.9
					c0.4-0.7,1.4-0.9,2.1-0.5s0.9,1.4,0.5,2.1c-1.1,1.7-2.2,3.4-3.3,5C304,535.5,303.5,535.7,303,535.7z M154.3,526.3
					c-0.5,0-1-0.3-1.3-0.8c-1-1.8-1.9-3.6-2.7-5.4c-0.3-0.8,0-1.6,0.7-2s1.6,0,2,0.7c0.8,1.8,1.7,3.5,2.6,5.2c0.4,0.7,0.1,1.6-0.6,2
					C154.8,526.3,154.5,526.3,154.3,526.3z M309.3,525.6c-0.2,0-0.5-0.1-0.7-0.2c-0.7-0.4-1-1.3-0.6-2c0.9-1.7,1.8-3.5,2.6-5.2
					c0.3-0.8,1.2-1.1,2-0.8c0.8,0.3,1.1,1.2,0.8,2c-0.8,1.8-1.7,3.7-2.6,5.4C310.3,525.3,309.8,525.6,309.3,525.6z M149.4,515.5
					c-0.6,0-1.2-0.4-1.4-1c-0.7-1.9-1.4-3.8-1.9-5.7c-0.2-0.8,0.2-1.6,1-1.9c0.8-0.2,1.6,0.2,1.9,1c0.6,1.9,1.2,3.7,1.9,5.5
					c0.3,0.8-0.1,1.6-0.9,1.9C149.7,515.5,149.6,515.5,149.4,515.5z M314.1,514.8c-0.2,0-0.3,0-0.5-0.1c-0.8-0.3-1.2-1.1-0.9-1.9
					c0.7-1.8,1.3-3.7,1.8-5.5c0.2-0.8,1.1-1.3,1.9-1c0.8,0.2,1.3,1.1,1,1.9c-0.6,1.9-1.2,3.9-1.9,5.7
					C315.3,514.4,314.7,514.8,314.1,514.8z M146,504.2c-0.7,0-1.3-0.5-1.5-1.2c-0.4-1.9-0.8-3.9-1.1-5.9c-0.1-0.8,0.4-1.6,1.2-1.7
					c0.8-0.1,1.6,0.4,1.7,1.2c0.3,1.9,0.7,3.8,1.1,5.7c0.2,0.8-0.3,1.6-1.1,1.8C146.2,504.2,146.1,504.2,146,504.2z M317.4,503.4
					c-0.1,0-0.2,0-0.3,0c-0.8-0.2-1.3-1-1.1-1.8c0.4-1.9,0.8-3.8,1-5.7c0.1-0.8,0.9-1.4,1.7-1.3c0.8,0.1,1.4,0.9,1.3,1.7
					c-0.3,2-0.7,4-1.1,5.9C318.7,502.9,318.1,503.4,317.4,503.4z M144.1,492.5c-0.8,0-1.4-0.6-1.5-1.4c-0.1-1.5-0.2-3-0.3-4.6
					c0-0.5,0-1,0-1.5c0-0.8,0.6-1.5,1.5-1.5c0.8,0,1.5,0.6,1.5,1.5c0,0.5,0,0.9,0,1.4c0.1,1.5,0.2,3,0.3,4.4
					c0.1,0.8-0.5,1.6-1.4,1.6C144.2,492.5,144.2,492.5,144.1,492.5z M319.1,491.7c0,0-0.1,0-0.1,0c-0.8-0.1-1.4-0.8-1.4-1.6
					c0.2-1.9,0.2-3.9,0.3-5.8c0-0.8,0.7-1.5,1.5-1.5c0,0,0,0,0,0c0.8,0,1.5,0.7,1.5,1.5c0,2-0.1,4-0.3,6
					C320.6,491.1,319.9,491.7,319.1,491.7z M143.9,480.6C143.9,480.6,143.8,480.6,143.9,480.6c-0.9,0-1.5-0.7-1.5-1.6
					c0.1-2,0.2-4,0.5-6c0.1-0.8,0.8-1.4,1.7-1.3c0.8,0.1,1.4,0.8,1.3,1.7c-0.2,1.9-0.4,3.9-0.5,5.8
					C145.3,480,144.7,480.6,143.9,480.6z M319.3,479.8c-0.8,0-1.5-0.6-1.5-1.4c-0.1-1.9-0.3-3.9-0.5-5.8c-0.1-0.8,0.5-1.6,1.3-1.7
					c0.8-0.1,1.6,0.5,1.7,1.3c0.2,2,0.4,4,0.5,6C320.8,479,320.2,479.7,319.3,479.8C319.3,479.8,319.3,479.8,319.3,479.8z
					 M145.2,468.8c-0.1,0-0.2,0-0.3,0c-0.8-0.1-1.4-0.9-1.2-1.7c0.4-2,0.8-4,1.3-5.9c0.2-0.8,1-1.3,1.8-1.1c0.8,0.2,1.3,1,1.1,1.8
					c-0.5,1.9-0.9,3.8-1.2,5.7C146.5,468.3,145.9,468.8,145.2,468.8z M317.8,468c-0.7,0-1.3-0.5-1.5-1.2c-0.4-1.9-0.8-3.8-1.3-5.7
					c-0.2-0.8,0.3-1.6,1.1-1.8c0.8-0.2,1.6,0.3,1.8,1.1c0.5,1.9,1,3.9,1.3,5.9c0.2,0.8-0.4,1.6-1.2,1.8C318,468,317.9,468,317.8,468
					z M148.1,457.3c-0.2,0-0.3,0-0.5-0.1c-0.8-0.3-1.2-1.1-1-1.9c0.6-1.9,1.3-3.8,2.1-5.7c0.3-0.8,1.2-1.1,2-0.8
					c0.8,0.3,1.1,1.2,0.8,2c-0.7,1.8-1.4,3.6-2,5.5C149.3,456.9,148.7,457.3,148.1,457.3z M314.8,456.5c-0.6,0-1.2-0.4-1.4-1
					c-0.6-1.8-1.3-3.7-2-5.5c-0.3-0.8,0-1.6,0.8-2c0.8-0.3,1.6,0,2,0.8c0.8,1.9,1.5,3.8,2.1,5.6c0.3,0.8-0.2,1.6-0.9,1.9
					C315.2,456.5,315,456.5,314.8,456.5z M152.6,446.3c-0.2,0-0.4,0-0.7-0.2c-0.7-0.4-1.1-1.3-0.7-2c0.9-1.8,1.8-3.6,2.8-5.3
					c0.4-0.7,1.3-1,2-0.6c0.7,0.4,1,1.3,0.6,2c-1,1.7-1.9,3.4-2.7,5.2C153.7,446,153.1,446.3,152.6,446.3z M310.3,445.6
					c-0.6,0-1.1-0.3-1.3-0.8c-0.9-1.7-1.8-3.5-2.8-5.1c-0.4-0.7-0.2-1.6,0.5-2.1c0.7-0.4,1.6-0.2,2.1,0.5c1,1.7,2,3.5,2.9,5.3
					c0.4,0.7,0.1,1.6-0.7,2C310.7,445.5,310.5,445.6,310.3,445.6z M158.5,436c-0.3,0-0.6-0.1-0.8-0.3c-0.7-0.5-0.9-1.4-0.4-2.1
					c1.1-1.7,2.3-3.3,3.5-4.9c0.5-0.7,1.4-0.8,2.1-0.3c0.7,0.5,0.8,1.4,0.3,2.1c-1.2,1.5-2.3,3.1-3.4,4.7
					C159.4,435.8,158.9,436,158.5,436z M304.3,435.4c-0.5,0-1-0.2-1.2-0.7c-1.1-1.6-2.2-3.2-3.4-4.7c-0.5-0.7-0.4-1.6,0.3-2.1
					c0.7-0.5,1.6-0.4,2.1,0.3c1.2,1.6,2.4,3.2,3.6,4.9c0.5,0.7,0.3,1.6-0.4,2.1C304.9,435.3,304.6,435.4,304.3,435.4z M165.7,426.6
					c-0.4,0-0.7-0.1-1-0.4c-0.6-0.5-0.7-1.5-0.1-2.1c1.3-1.5,2.7-3,4.1-4.4c0.6-0.6,1.5-0.6,2.1,0c0.6,0.6,0.6,1.5,0,2.1
					c-1.4,1.4-2.7,2.8-4,4.2C166.5,426.4,166.1,426.6,165.7,426.6z M297,426c-0.4,0-0.8-0.2-1.1-0.5c-1.3-1.4-2.7-2.9-4-4.2
					c-0.6-0.6-0.6-1.5,0-2.1c0.6-0.6,1.5-0.6,2.1,0c1.4,1.4,2.8,2.9,4.2,4.4c0.6,0.6,0.5,1.6-0.1,2.1C297.7,425.9,297.4,426,297,426
					z M174.1,418.2c-0.4,0-0.8-0.2-1.1-0.5c-0.5-0.6-0.5-1.6,0.1-2.1c1.5-1.3,3.1-2.6,4.7-3.8c0.7-0.5,1.6-0.4,2.1,0.3
					c0.5,0.7,0.4,1.6-0.3,2.1c-1.5,1.2-3.1,2.4-4.5,3.7C174.8,418.1,174.5,418.2,174.1,418.2z M288.5,417.7c-0.3,0-0.7-0.1-1-0.4
					c-1.5-1.3-3-2.5-4.6-3.6c-0.7-0.5-0.8-1.4-0.3-2.1c0.5-0.7,1.4-0.8,2.1-0.3c1.6,1.2,3.2,2.5,4.7,3.8c0.6,0.5,0.7,1.5,0.2,2.1
					C289.4,417.6,288.9,417.7,288.5,417.7z M183.6,411.1c-0.5,0-1-0.2-1.3-0.7c-0.5-0.7-0.3-1.6,0.4-2.1c1.7-1.1,3.4-2.1,5.2-3.1
					c0.7-0.4,1.6-0.1,2,0.6c0.4,0.7,0.1,1.6-0.6,2c-1.7,0.9-3.4,2-5,3C184.1,411,183.8,411.1,183.6,411.1z M279,410.7
					c-0.3,0-0.6-0.1-0.8-0.2c-1.6-1-3.3-2.1-5-3c-0.7-0.4-1-1.3-0.6-2c0.4-0.7,1.3-1,2-0.6c1.8,1,3.5,2,5.2,3.1
					c0.7,0.4,0.9,1.4,0.5,2.1C280,410.4,279.5,410.7,279,410.7z M193.9,405.3c-0.6,0-1.1-0.3-1.4-0.9c-0.4-0.7,0-1.6,0.7-2
					c1.8-0.9,3.7-1.7,5.5-2.4c0.8-0.3,1.6,0.1,1.9,0.8c0.3,0.8-0.1,1.6-0.8,1.9c-1.8,0.7-3.6,1.5-5.3,2.3
					C194.3,405.2,194.1,405.3,193.9,405.3z M268.6,405c-0.2,0-0.4,0-0.6-0.1c-1.8-0.8-3.6-1.6-5.4-2.3c-0.8-0.3-1.2-1.2-0.9-1.9
					c0.3-0.8,1.2-1.2,1.9-0.9c1.9,0.7,3.7,1.5,5.6,2.4c0.8,0.3,1.1,1.2,0.7,2C269.7,404.6,269.2,405,268.6,405z M204.9,400.9
					c-0.6,0-1.2-0.4-1.4-1c-0.3-0.8,0.2-1.6,1-1.9c1.9-0.6,3.9-1.2,5.8-1.6c0.8-0.2,1.6,0.3,1.8,1.1c0.2,0.8-0.3,1.6-1.1,1.8
					c-1.9,0.5-3.8,1-5.6,1.6C205.2,400.9,205.1,400.9,204.9,400.9z M257.5,400.7c-0.1,0-0.3,0-0.4-0.1c-1.9-0.6-3.7-1.1-5.6-1.5
					c-0.8-0.2-1.3-1-1.1-1.8c0.2-0.8,1-1.3,1.8-1.1c1.9,0.5,3.9,1,5.8,1.6c0.8,0.2,1.2,1.1,1,1.9
					C258.7,400.3,258.2,400.7,257.5,400.7z M216.4,398.1c-0.7,0-1.3-0.5-1.5-1.2c-0.1-0.8,0.4-1.6,1.2-1.7c2-0.3,4-0.6,6-0.8
					c0.8-0.1,1.6,0.5,1.6,1.3c0.1,0.8-0.5,1.6-1.3,1.6c-1.9,0.2-3.9,0.5-5.8,0.8C216.6,398.1,216.5,398.1,216.4,398.1z M246,398
					c-0.1,0-0.2,0-0.2,0c-1.9-0.3-3.9-0.6-5.8-0.8c-0.8-0.1-1.4-0.8-1.4-1.6s0.8-1.4,1.6-1.4c2,0.2,4,0.5,6,0.8
					c0.8,0.1,1.4,0.9,1.2,1.7C247.3,397.5,246.7,398,246,398z M228.3,396.9l-0.2-3c0,0,0.1,0,0.1,0v0v0c2.1-0.1,4-0.1,6,0
					c0.8,0,1.5,0.7,1.5,1.5s-0.7,1.5-1.5,1.5C232.2,396.8,230.3,396.8,228.3,396.9z"/>
				<path fill="#393A3A" d="M288.9,551.1c-0.4,0-0.8-0.2-1.1-0.5c-0.5-0.6-0.5-1.6,0.2-2.1c0.7-0.6,1.5-1.3,2.2-2
					c0.6-0.6,1.6-0.5,2.1,0.1c0.6,0.6,0.5,1.6-0.1,2.1c-0.7,0.7-1.5,1.4-2.3,2C289.6,551,289.3,551.1,288.9,551.1z"/>
			</g>
		</g>
		<g>
			<g>
				<path fill="#393A3A" d="M130.1,735H123c-1.7,0-3-1.3-3-3s1.3-3,3-3h7.1c1.7,0,3,1.3,3,3S131.8,735,130.1,735z"/>
				<path fill="#393A3A" d="M111.4,735h-7.1c-1.7,0-3-1.3-3-3s1.3-3,3-3h7.1c1.7,0,3,1.3,3,3S113,735,111.4,735z"/>
				<path fill="#393A3A" d="M117.2,747.9c-1.7,0-3-1.3-3-3v-7.1c0-1.7,1.3-3,3-3s3,1.3,3,3v7.1C120.2,746.5,118.9,747.9,117.2,747.9
					z"/>
				<path fill="#393A3A" d="M117.2,729.1c-1.7,0-3-1.3-3-3V719c0-1.7,1.3-3,3-3s3,1.3,3,3v7.1C120.2,727.8,118.9,729.1,117.2,729.1z
					"/>
			</g>
			<g>
				<path fill="#393A3A" d="M358.9,760.8h-7.1c-1.7,0-3-1.3-3-3s1.3-3,3-3h7.1c1.7,0,3,1.3,3,3S360.6,760.8,358.9,760.8z"/>
				<path fill="#393A3A" d="M340.2,760.8h-7.1c-1.7,0-3-1.3-3-3s1.3-3,3-3h7.1c1.7,0,3,1.3,3,3S341.8,760.8,340.2,760.8z"/>
				<path fill="#393A3A" d="M346,773.7c-1.7,0-3-1.3-3-3v-7.1c0-1.7,1.3-3,3-3s3,1.3,3,3v7.1C349,772.4,347.7,773.7,346,773.7z"/>
				<path fill="#393A3A" d="M346,755c-1.7,0-3-1.3-3-3v-7.1c0-1.7,1.3-3,3-3s3,1.3,3,3v7.1C349,753.6,347.7,755,346,755z"/>
			</g>
			<g>
				<g>
					<path fill="#FFFFFF" d="M198.5,699.8L198.5,699.8c-14.3,0-25.8,11.6-25.8,25.8v80.2c0,14.3,11.6,25.8,25.8,25.8h0
						c14.3,0,25.8-11.6,25.8-25.8v-80.2C224.4,711.3,212.8,699.8,198.5,699.8z"/>
					<path fill="#393A3A" d="M198.5,834.7c-15.9,0-28.8-12.9-28.8-28.8v-80.2c0-15.9,12.9-28.8,28.8-28.8s28.8,12.9,28.8,28.8v80.2
						C227.4,821.8,214.4,834.7,198.5,834.7z M198.5,702.8c-12.6,0-22.8,10.2-22.8,22.8v80.2c0,12.6,10.2,22.8,22.8,22.8
						s22.8-10.2,22.8-22.8v-80.2C221.4,713,211.1,702.8,198.5,702.8z"/>
				</g>
				<g>
					<path fill="#FFFFFF" d="M172.7,765.7h51.7H172.7z"/>
					<path fill="#393A3A" d="M224.4,768.7h-51.7c-1.7,0-3-1.3-3-3s1.3-3,3-3h51.7c1.7,0,3,1.3,3,3S226,768.7,224.4,768.7z"/>
				</g>
				<g>
					<path fill="#769CD1" d="M180.7,757.7v-32.1c0-9.8,8-17.8,17.8-17.8s17.8,8,17.8,17.8v32.1H180.7z"/>
				</g>
			</g>
			<g>
				<g>
					<circle fill="#FFFFFF" cx="281.2" cy="808.2" r="42.5"/>
					<path fill="#393A3A" d="M281.3,853.8c-17.2,0-32.7-9.5-40.5-24.8c-11.4-22.3-2.6-49.8,19.7-61.2c6.4-3.3,13.6-5,20.7-5
						c17.2,0,32.7,9.5,40.5,24.8c5.5,10.8,6.5,23.1,2.8,34.7c-3.7,11.6-11.7,21-22.6,26.5C295.6,852,288.4,853.8,281.3,853.8z
						 M281.2,768.7c-6.3,0-12.3,1.5-18,4.4c-19.4,9.9-27.1,33.8-17.1,53.2c6.8,13.3,20.3,21.5,35.2,21.5c6.3,0,12.3-1.5,18-4.4
						c9.4-4.8,16.3-13,19.6-23s2.4-20.7-2.4-30.1C309.6,777,296.1,768.7,281.2,768.7z"/>
				</g>
				<g>
					<path fill="#FFFFFF" d="M261.8,770.4l38.8,75.6L261.8,770.4z"/>
					<path fill="#393A3A" d="M300.6,849.1c-1.1,0-2.1-0.6-2.7-1.6l-38.8-75.6c-0.8-1.5-0.2-3.3,1.3-4c1.5-0.8,3.3-0.2,4,1.3
						l38.8,75.6c0.8,1.5,0.2,3.3-1.3,4C301.5,849,301.1,849.1,300.6,849.1z"/>
				</g>
				<g>
					<g>
						<path fill="#F8C037" d="M281.3,842.8c-13,0-24.8-7.2-30.7-18.8c-4.2-8.2-5-17.5-2.1-26.3c2-6.2,5.6-11.5,10.4-15.6l30.6,59.8
							C286.8,842.4,284,842.8,281.3,842.8C281.3,842.8,281.3,842.8,281.3,842.8z"/>
					</g>
				</g>
			</g>
		</g>
		<g>
			<circle fill="#F8C037" cx="569.9" cy="446.6" r="58.7"/>
			<g>
				<g>
					<path fill="#FFFFFF" d="M561.6,470l2-19.7l-19.7-3.3l-1.3-16.1c-4.7,0.6-9.1,2.1-13.9,4.4c-12.7,6.1-18.9-3.1-30.6-4.7
						c-10.7-1.5-24,1.6-31.2,10.1c-8.6,10.1-7.8,27.9-5.2,40.1c1.9,9.1,6.9,16.7,10,25.4c0.4,1.1,0.7,2.2,1,3.3
						c3.5,13.7,9.3,38.5,17.3,39.6c8,1.1,8.2-13.2,11.7-28.1c3.5-14.9,18-13.5,18-13.5s14.5-1.4,18,13.5
						c3.5,14.9,3.7,29.2,11.7,28.1c8-1.1,13.8-25.9,17.3-39.6c1.9-7.4,6.2-13.8,8.8-20.9c1.4-4,2.6-8.5,3.4-13.3L561.6,470z"/>
					<path fill="#393A3A" d="M548.3,552.1C548.3,552.1,548.3,552.1,548.3,552.1c-8,0-9.8-9.6-11.8-20.7c-0.6-3.2-1.2-6.4-2-9.7
						c-2.3-10.1-10.6-11.2-14.1-11.2c-0.4,0-0.7,0-0.7,0c-0.2,0-0.4,0-0.6,0c0,0-0.3,0-0.7,0c-3.5,0-11.7,1.1-14.1,11.2
						c-0.8,3.3-1.4,6.6-2,9.8c-2,11.1-3.8,20.7-11.8,20.7c-0.4,0-0.8,0-1.2-0.1c-8.9-1.2-13.9-18.6-19.2-39.6l-0.6-2.2
						c-0.2-1-0.6-2-0.9-3.1c-1.1-3.2-2.6-6.4-4-9.5c-2.4-5.1-4.8-10.4-6-16.3c-1.8-8.6-4.9-30.1,5.9-42.7
						c6.2-7.2,16.7-11.5,28.2-11.5c2,0,3.9,0.1,5.8,0.4c4.6,0.6,8.4,2.3,11.7,3.8c3.6,1.6,6.7,3,10.2,3c2.2,0,4.5-0.6,7-1.8
						c5.4-2.6,10.1-4.1,14.9-4.7c0.8-0.1,1.6,0.1,2.3,0.7c0.6,0.5,1,1.3,1.1,2.1l1.1,13.8l17.4,2.9c1.6,0.3,2.6,1.7,2.5,3.3
						l-1.8,17.2l14.6,4.5c1.4,0.4,2.3,1.9,2.1,3.3c-0.7,4.8-2,9.6-3.5,13.8c-1.1,3.1-2.6,6.1-4,9c-1.9,3.9-3.7,7.7-4.7,11.6
						l-0.6,2.2c-5.3,20.9-10.3,38.4-19.2,39.6C549.1,552.1,548.7,552.1,548.3,552.1z M520.5,504.4c7.9,0,17.2,4.2,19.9,15.9
						c0.8,3.5,1.4,6.8,2,10c1.4,7.8,2.9,15.8,5.9,15.8c0,0,0,0,0,0c0.1,0,0.3,0,0.4,0c0.5-0.1,3.4-1,7.5-11.9
						c2.7-7.3,4.9-16.1,6.7-23.2l0.6-2.2c1.2-4.6,3.2-8.7,5.1-12.8c1.4-2.9,2.7-5.6,3.7-8.4c1.1-3.2,2.1-6.7,2.8-10.2l-14.4-4.5
						c-1.4-0.4-2.2-1.7-2.1-3.2l1.7-16.9l-16.9-2.9c-1.4-0.2-2.4-1.4-2.5-2.7l-1-12.9c-3.1,0.7-6.3,1.8-9.9,3.6
						c-3.3,1.6-6.5,2.4-9.6,2.4c-4.7,0-8.7-1.8-12.6-3.5c-3.1-1.4-6.4-2.8-10.1-3.4c-1.6-0.2-3.3-0.3-4.9-0.3
						c-9.6,0-18.6,3.6-23.6,9.4c-9.3,10.8-5.8,31.5-4.6,37.5c1.1,5.3,3.3,10,5.6,15c1.5,3.2,3,6.5,4.2,10c0.4,1.3,0.8,2.4,1.1,3.6
						l0.6,2.2c1.8,7.1,4,15.9,6.7,23.2c4.1,10.9,6.9,11.8,7.5,11.9c0.1,0,0.3,0,0.4,0c3,0,4.5-8,5.9-15.8c0.6-3.2,1.2-6.6,2-10
						c2.7-11.7,12.1-15.9,19.9-15.9c0.4,0,0.8,0,1,0C519.7,504.4,520.1,504.4,520.5,504.4z"/>
				</g>
			</g>
			<path fill="#393A3A" d="M472.9,469.9c-1.5,0-2.8-1.2-3-2.7c-0.8-8.7,0.8-15.5,4.8-20.1c4.5-5.2,10.5-5.5,10.7-5.5
				c1.7-0.1,3.1,1.2,3.1,2.9c0.1,1.6-1.2,3-2.8,3.1c-0.2,0-3.8,0.3-6.6,3.6c-2.8,3.3-3.9,8.5-3.3,15.5c0.2,1.6-1.1,3.1-2.7,3.3
				C473.1,469.9,473,469.9,472.9,469.9z"/>
			<g>
				<path fill="#393A3A" d="M588,431.4c-0.8,0-1.7-0.3-2.2-1c-1.1-1.2-1-3.1,0.3-4.2l10-8.9c1.2-1.1,3.1-1,4.2,0.3
					c1.1,1.2,1,3.1-0.3,4.2l-10,8.9C589.4,431.2,588.7,431.4,588,431.4z"/>
				<path fill="#393A3A" d="M569.9,420.3c-0.4,0-0.8-0.1-1.2-0.3c-1.5-0.7-2.2-2.4-1.5-3.9l5.4-12.3c0.7-1.5,2.4-2.2,3.9-1.5
					c1.5,0.7,2.2,2.4,1.5,3.9l-5.4,12.3C572.2,419.6,571.1,420.3,569.9,420.3z"/>
				<path fill="#393A3A" d="M548.7,420.8c-1.6,0-3-1.3-3-2.9l-0.3-13.4c0-1.7,1.3-3,2.9-3.1c0,0,0,0,0.1,0c1.6,0,3,1.3,3,2.9
					l0.3,13.4C551.7,419.4,550.4,420.8,548.7,420.8C548.7,420.8,548.7,420.8,548.7,420.8z"/>
				<path fill="#393A3A" d="M595.4,453.9c-1.3,0-2.5-0.8-2.9-2.1c-0.5-1.6,0.4-3.3,2-3.7l12.8-3.9c1.6-0.5,3.3,0.4,3.7,2
					c0.5,1.6-0.4,3.3-2,3.7l-12.8,3.9C596,453.9,595.7,453.9,595.4,453.9z"/>
				<path fill="#393A3A" d="M606.3,478.1c-0.1,0-0.3,0-0.4,0l-13.3-1.9c-1.6-0.2-2.8-1.7-2.6-3.4c0.2-1.6,1.7-2.8,3.4-2.6l13.3,1.9
					c1.6,0.2,2.8,1.7,2.6,3.4C609,477.1,607.8,478.1,606.3,478.1z"/>
			</g>
		</g>
		<g>
			<path fill="#393A3A" d="M848.5,318.6c-0.2,0-0.5,0-0.7-0.1c-43.9-10.8-62-27.1-75.8-48.2c-11.9-18.3-18.2-39.8-18.2-62.4v-70.3
				c0-1.7,1.3-3,3-3h183.4c1.7,0,3,1.3,3,3v70.3c0,22.6-6.3,44.2-18.2,62.4c-13.8,21.1-31.9,37.4-75.8,48.2
				C849,318.5,848.7,318.6,848.5,318.6z M759.8,140.6v67.3c0,21.4,6,41.9,17.2,59.1c12.9,19.8,30,35.2,71.5,45.5
				c41.4-10.3,58.6-25.7,71.5-45.5c11.3-17.3,17.2-37.7,17.2-59.1v-67.3H759.8z"/>
			<path fill="#F8C037" d="M848.5,303c-37.1-9.8-52.1-23.2-63.9-41.4c-10.5-16.1-16-35.1-16-55.1v-57h159.8v57c0,20-5.5,39-16,55.1
				C900.5,279.8,885.5,293.2,848.5,303z"/>
			<g>
				<g>
					<path fill="#FFFFFF" d="M890.5,195.5c-0.4-2.9-1.2-5.7-2.4-8.1c-3-6-9-9.2-15.3-10.3c-6.7-1.1-11.8,0-17.8,2.9
						c-9,4.3-13.4-2.2-21.7-3.4c-7.6-1.1-17,1.1-22.1,7.1c-6.1,7.2-5.5,19.8-3.7,28.4c1.4,6.5,4.9,11.9,7.1,18
						c0.3,0.8,0.5,1.6,0.7,2.4c2.4,9.7,6.6,27.3,12.2,28c5.7,0.8,5.8-9.3,8.3-19.9c2.4-10.6,12.7-9.6,12.7-9.6s10.3-1,12.7,9.6
						c2.4,10.6,2.6,20.7,8.3,19.9s9.8-18.4,12.2-28c1.3-5.2,4.4-9.8,6.2-14.8C890.1,211.3,891.5,202.9,890.5,195.5z"/>
					<path fill="#393A3A" d="M868.8,263.6C868.8,263.6,868.8,263.6,868.8,263.6c-6.4,0-7.8-7.5-9.2-15.4c-0.4-2.2-0.8-4.5-1.4-6.9
						c-1.5-6.3-6.3-7.3-9.1-7.3c-0.2,0-0.4,0-0.4,0c-0.2,0-0.4,0-0.6,0c0,0-0.2,0-0.4,0c-2.8,0-7.7,0.9-9.1,7.3
						c-0.5,2.3-1,4.6-1.4,6.9c-1.5,7.9-2.8,15.4-9.2,15.4c-0.3,0-0.7,0-1-0.1c-6.8-0.9-10.5-13.5-14.3-28.7l-0.4-1.6
						c-0.2-0.7-0.4-1.4-0.6-2.1c-0.8-2.3-1.8-4.4-2.8-6.6c-1.7-3.7-3.4-7.4-4.3-11.7c-1.3-6.3-3.5-21.8,4.4-31
						c4.5-5.3,12.2-8.5,20.6-8.5c1.4,0,2.9,0.1,4.2,0.3c3.4,0.5,6.1,1.7,8.5,2.8c2.5,1.1,4.6,2,6.8,2c1.5,0,3-0.4,4.6-1.2
						c7.1-3.4,12.6-4.3,19.6-3.2c8,1.3,14.4,5.6,17.6,11.9c1.3,2.6,2.2,5.7,2.7,9c1,7.2,0,16.1-2.8,23.7c-0.8,2.3-1.8,4.4-2.8,6.4
						c-1.3,2.7-2.6,5.3-3.3,8.1l-0.4,1.6c-3.8,15.2-7.5,27.8-14.3,28.7C869.5,263.6,869.1,263.6,868.8,263.6z M849.1,228.1
						c5.9,0,12.9,3.1,15,11.9c0.6,2.5,1,4.8,1.4,7.1c0.7,3.9,1.9,10.5,3.3,10.5l0,0c0.1,0,0.1,0,0.2,0c0,0,1.8-0.5,4.7-8
						c1.9-5.1,3.4-11.2,4.7-16.2l0.4-1.6c0.8-3.3,2.3-6.3,3.7-9.2c1-2,1.9-3.9,2.6-5.9c2.4-6.7,3.4-14.5,2.5-20.8
						c-0.4-2.7-1.1-5.2-2.1-7.2c-3.1-6.2-9.5-8.1-13.1-8.6c-5.8-0.9-10-0.2-16,2.6c-2.5,1.2-4.8,1.8-7.2,1.8c-3.5,0-6.5-1.3-9.3-2.5
						c-2.3-1-4.4-2-6.9-2.3c-1.1-0.2-2.2-0.2-3.4-0.2c-6.5,0-12.7,2.4-16.1,6.4c-6.3,7.4-3.9,21.6-3.1,25.8
						c0.8,3.6,2.3,6.9,3.9,10.4c1.1,2.3,2.1,4.6,3,7.2c0.3,0.9,0.6,1.8,0.8,2.6l0.4,1.6c1.2,4.9,2.8,11.1,4.7,16.2
						c2.8,7.6,4.6,8,4.7,8c0.1,0,0.1,0,0.2,0c1.4,0,2.6-6.6,3.3-10.5c0.4-2.3,0.9-4.7,1.4-7.1c2-8.8,9.1-11.9,15-11.9
						c0.3,0,0.5,0,0.7,0C848.6,228.1,848.8,228.1,849.1,228.1z"/>
				</g>
				<path fill="#393A3A" d="M818.1,205.2c-1.5,0-2.8-1.2-3-2.7c-0.6-6,0.6-10.7,3.4-13.9c3.2-3.7,7.3-4,7.8-4
					c1.7-0.1,3.1,1.2,3.1,2.9c0.1,1.6-1.2,3-2.8,3.1c-0.1,0-2.1,0.2-3.6,2c-1.6,1.9-2.3,5.2-1.9,9.4c0.2,1.6-1.1,3.1-2.7,3.3
					C818.3,205.2,818.2,205.2,818.1,205.2z"/>
			</g>
		</g>
		<g>
			<polygon fill="#769CD1" points="850.1,511.2 848.4,549.5 815,582.9 796.7,564.6 			"/>
			<g>
				<g>
					<path fill="#393A3A" d="M814,614.3c-1.5,0-3-0.6-4.1-1.7l-42.8-42.8c-1.2-1.3-1.8-3-1.7-4.7c0.1-1.7,1.1-3.3,2.5-4.3
						c2.6-1.8,5.6-2.7,8.8-2.7c4.1,0,8,1.6,10.9,4.5L817,592c5.3,5.3,6,13.6,1.8,19.7c-1,1.5-2.6,2.4-4.3,2.5
						C814.4,614.3,814.2,614.3,814,614.3z M771.4,565.7l42.5,42.5c2.5-3.7,2-8.7-1.2-11.9l-29.4-29.4c-1.8-1.8-4.2-2.8-6.7-2.8
						C774.8,564.1,773,564.6,771.4,565.7z"/>
				</g>
			</g>
			<g>
				<path fill="#393A3A" d="M815,597.2C815,597.2,815,597.2,815,597.2c-0.8,0-1.6-0.3-2.2-0.9c0,0-0.1-0.1-0.1-0.1l-29.3-29.3
					c0,0-0.1-0.1-0.1-0.1c-0.6-0.6-0.9-1.3-0.9-2.1c0-0.8,0.3-1.6,0.9-2.1l80.3-80.3c1.1-1.1,2.6-1.7,4.1-1.7c1.5,0,3,0.6,4.1,1.7
					l25.6,25.6c1.1,1.1,1.7,2.6,1.7,4.1c0,1.5-0.6,3-1.7,4.1l-80.4,80.3C816.5,596.9,815.8,597.2,815,597.2z M789.6,564.6L815,590
					l78.1-78.1l-25.4-25.4L789.6,564.6z"/>
				<path fill="#393A3A" d="M783.3,584.7C783.3,584.7,783.3,584.7,783.3,584.7c-0.8,0-1.6-0.3-2.1-0.9h0l-5.5-5.5
					c-0.1-0.1-0.1-0.1-0.2-0.2c-1-1.2-0.9-2.9,0.2-4c1.2-1.2,3.1-1.2,4.2,0c0,0,0,0,0,0l5.3,5.3c0.7,0.5,1.1,1.4,1.1,2.3
					C786.3,583.4,784.9,584.7,783.3,584.7z"/>
			</g>
			<path fill="#393A3A" d="M890,507.6c-0.8,0-1.6-0.3-2.1-0.9l-16.3-16.3c-0.6-0.6-0.9-1.5-0.9-2.3c0.1-0.9,0.5-1.7,1.2-2.2l18.3-14
				c1-0.8,2.2-1.2,3.6-1.2c1.5,0,3.1,0.6,4.1,1.7l8,8c2.1,2.1,2.3,5.4,0.5,7.7l-14,18.3c-0.5,0.7-1.3,1.1-2.2,1.2
				C890.2,507.6,890.1,507.6,890,507.6z M878.2,488.6l11.5,11.5l11.8-15.5l-7.9-7.9L878.2,488.6z"/>
			<path fill="#393A3A" d="M898.8,480.6c-0.8,0-1.6-0.3-2.2-0.9c-1.1-1.2-1.1-3.1,0.1-4.2l37.7-36.3c1.2-1.1,3.1-1.1,4.2,0.1
				s1.1,3.1-0.1,4.2l-37.7,36.3C900.3,480.3,899.5,480.6,898.8,480.6z"/>
			<path fill="#393A3A" d="M814.6,577.1c-0.8,0-1.5-0.3-2.1-0.9c-1.2-1.2-1.2-3.1,0-4.2l63.5-63c1.2-1.2,3.1-1.2,4.2,0
				c1.2,1.2,1.2,3.1,0,4.2l-63.5,63C816.1,576.8,815.4,577.1,814.6,577.1z"/>
			<path fill="#393A3A" d="M759,650.8c-0.8,0-1.5-0.3-2.1-0.9l-28.9-28.4c-1.2-1.2-1.2-3.1,0-4.2c1.2-1.2,3.1-1.2,4.2,0l28.9,28.4
				c1.2,1.2,1.2,3.1,0,4.2C760.5,650.5,759.8,650.8,759,650.8z"/>
			<path fill="#393A3A" d="M751.2,642.4c-0.7,0-1.4-0.1-2-0.4c-0.4-0.1-0.7-0.4-1-0.7l-11.7-11.4c-1.2-1.2-1.2-3.1,0-4.2l45.2-46.1
				c0.6-0.6,1.3-0.9,2.1-0.9c0,0,0,0,0,0c0.8,0,1.6,0.3,2.1,0.9l13.4,13.4c0.6,0.6,0.9,1.3,0.9,2.1s-0.3,1.6-0.9,2.1l-43.9,43.4
				C754.2,641.8,752.7,642.4,751.2,642.4z M742.7,627.7l8.6,8.4l41.5-41l-9.1-9.1L742.7,627.7z"/>
			<polygon fill="#769CD1" points="783.3,581.7 777.8,576.2 777.8,576.2 			"/>
			<path fill="#393A3A" d="M815,597.2C815,597.2,815,597.2,815,597.2c-0.8,0-1.6-0.3-2.2-0.9c0,0-0.1-0.1-0.1-0.1l-29.3-29.3
				c0,0-0.1-0.1-0.1-0.1c-0.6-0.6-0.9-1.3-0.9-2.1c0-0.8,0.3-1.6,0.9-2.1l80.3-80.3c1.1-1.1,2.6-1.7,4.1-1.7c1.5,0,3,0.6,4.1,1.7
				l25.6,25.6c1.1,1.1,1.7,2.6,1.7,4.1c0,1.5-0.6,3-1.7,4.1l-80.4,80.3C816.5,596.9,815.8,597.2,815,597.2z M789.6,564.6L815,590
				l78.1-78.1l-25.4-25.4L789.6,564.6z"/>
			<path fill="#769CD1" d="M941.6,461.8c0,0,24.8,34.3,0,35.7C918.8,498.7,941.6,461.8,941.6,461.8z"/>
			<g>
				<path fill="#393A3A" d="M946.9,425.6c-0.7,0-1.3-0.2-1.9-0.7c-1.3-1-1.5-2.9-0.4-4.2l8.5-10.4c1-1.3,2.9-1.5,4.2-0.4
					c1.3,1,1.5,2.9,0.4,4.2l-8.5,10.4C948.7,425.2,947.8,425.6,946.9,425.6z"/>
				<path fill="#393A3A" d="M927.3,417.5c-0.2,0-0.5,0-0.7-0.1c-1.6-0.4-2.6-2-2.2-3.7l3.3-13c0.4-1.6,2-2.6,3.7-2.2
					c1.6,0.4,2.6,2,2.2,3.7l-3.3,13C929.8,416.6,928.6,417.5,927.3,417.5z"/>
			</g>
		</g>
		<g>
			<rect x="1134.6" y="125" fill="#769CD1" width="150.4" height="148"/>
			<path fill="#FFFFFF" d="M1179,181.8c-0.5-3.5-1.4-6.9-2.9-9.8c-3.6-7.2-10.8-11.2-18.6-12.4c-8.2-1.3-14.3,0.1-21.5,3.5
				c-10.9,5.2-16.2-2.7-26.3-4.1c-9.2-1.3-20.6,1.4-26.8,8.7c-7.4,8.7-6.7,23.9-4.5,34.4c1.6,7.8,5.9,14.4,8.5,21.8
				c0.3,0.9,0.6,1.9,0.9,2.8c3,11.7,7.9,33,14.8,34s7.1-11.3,10-24.1c3-12.8,15.4-11.6,15.4-11.6s12.5-1.2,15.4,11.6s3.1,25,10,24.1
				s11.8-22.2,14.8-34c1.6-6.3,5.3-11.8,7.5-17.9C1178.6,201,1180.2,190.8,1179,181.8z"/>
			<path fill="#393A3A" d="M1088.1,193.2c-1.5,0-2.8-1.2-3-2.7c-0.7-7.6,0.7-13.5,4.2-17.5c3.9-4.5,8.9-4.9,9.5-4.9
				c1.7-0.1,3.1,1.2,3.1,2.9c0.1,1.6-1.2,3-2.8,3.1c-0.2,0-3.1,0.3-5.3,2.9c-2.3,2.8-3.2,7.1-2.7,13c0.2,1.6-1.1,3.1-2.7,3.3
				C1088.3,193.2,1088.2,193.2,1088.1,193.2z"/>
			<path fill="#393A3A" d="M1293.4,284.4h-167.3c-1.7,0-3-1.3-3-3V116.7c0-1.7,1.3-3,3-3h167.3c1.7,0,3,1.3,3,3v164.7
				C1296.4,283,1295.1,284.4,1293.4,284.4z M1129.1,278.4h161.3V119.7h-161.3V278.4z"/>
			<path fill="#393A3A" d="M1103.3,263.6C1103.3,263.6,1103.3,263.6,1103.3,263.6c-0.4,0-0.7,0-1.1-0.1
				c-7.9-1.1-12.3-16.2-16.8-34.3l-0.5-1.9c-0.2-0.8-0.5-1.7-0.8-2.6c-1-2.8-2.2-5.3-3.4-8.1c-2-4.4-4.1-8.9-5.2-14.1
				c-1.6-7.5-4.2-26,5.1-37c5.4-6.3,14.5-10,24.5-10c1.7,0,3.4,0.1,5,0.3c4,0.6,7.3,2,10.2,3.3c2.2,1,4.4,1.9,6.5,2.3
				c1.4,0.3,2.5,1.5,2.5,3v60.4c0,1.6-1.2,2.9-2.8,3c-4,0.3-9.2,2.1-10.9,9.3c-0.7,2.8-1.2,5.6-1.7,8.3
				C1112.1,255.3,1110.5,263.6,1103.3,263.6z M1105.1,161.6c-8.1,0-15.7,3-19.9,7.9c-7.8,9.1-4.9,26.7-3.8,31.8
				c0.9,4.5,2.8,8.5,4.8,12.8c1.3,2.8,2.6,5.6,3.7,8.6c0.4,1.1,0.7,2.1,1,3.1l0.5,1.9c1.5,6.1,3.4,13.6,5.8,19.9
				c3.5,9.3,5.8,9.9,6.1,9.9c0.1,0,0.2,0,0.3,0c2.2,0,3.5-7,4.7-13.2c0.5-2.8,1-5.6,1.7-8.6c2.2-9.6,8.9-12.6,13.5-13.5v-55.4
				c-1.9-0.6-3.7-1.4-5.4-2.1c-2.7-1.2-5.4-2.4-8.6-2.8C1107.9,161.7,1106.5,161.6,1105.1,161.6z"/>
			<path fill="#FFFFFF" d="M1288.3,179.1c-0.5-3.5-1.4-6.9-2.9-9.8c-3.6-7.2-10.8-11.2-18.6-12.4c-8.2-1.3-14.3,0.1-21.5,3.5
				c-10.9,5.2-16.2-2.7-26.3-4.1c-9.2-1.3-20.6,1.4-26.8,8.7c-7.4,8.7-6.7,23.9-4.5,34.4c1.6,7.8,5.9,14.4,8.5,21.8
				c0.3,0.9,0.6,1.9,0.9,2.8c3,11.7,7.9,33,14.8,34c6.9,0.9,7.1-11.3,10-24.1c3-12.8,15.4-11.6,15.4-11.6s12.5-1.2,15.4,11.6
				s3.1,25,10,24.1s11.8-22.2,14.8-34c1.6-6.3,5.3-11.8,7.5-17.9C1287.9,198.3,1289.5,188.1,1288.3,179.1z"/>
		</g>
		<g>
			<path fill="#393A3A" d="M1215.5,573.3C1215.5,573.3,1215.5,573.3,1215.5,573.3c-8,0-9.8-9.6-11.8-20.7c-0.6-3.2-1.2-6.4-2-9.7
				c-2.3-10.1-10.6-11.2-14.1-11.2c-0.4,0-0.7,0-0.7,0c-0.2,0-0.4,0-0.6,0c0,0-0.3,0-0.7,0c-3.5,0-11.7,1.1-14.1,11.2
				c-0.8,3.3-1.4,6.6-2,9.8c-2,11.1-3.8,20.7-11.8,20.7c-0.4,0-0.8,0-1.2-0.1c-8.9-1.2-13.9-18.6-19.2-39.6l-0.6-2.2
				c-0.2-1-0.6-2-0.9-3.1c-1.1-3.2-2.6-6.4-4-9.5c-2.4-5.1-4.8-10.4-6-16.3c-1.8-8.6-4.9-30.1,5.9-42.7c6.2-7.2,16.7-11.5,28.2-11.5
				c2,0,3.9,0.1,5.8,0.4c4.6,0.6,8.4,2.3,11.7,3.8c3.6,1.6,6.7,3,10.2,3c2.2,0,4.5-0.6,7-1.8c7.1-3.4,13.2-4.9,19.6-4.9
				c2.3,0,4.7,0.2,7.3,0.6c11,1.7,19.7,7.6,23.9,16.1c1.8,3.6,3,7.8,3.7,12.4c1.4,10,0,22.3-3.8,32.8c-1.1,3.1-2.6,6.1-4,9
				c-1.9,3.9-3.7,7.7-4.7,11.6l-0.6,2.2c-5.3,20.9-10.3,38.4-19.2,39.6C1216.3,573.2,1215.9,573.3,1215.5,573.3z M1187.6,525.6
				c7.9,0,17.2,4.2,19.9,15.9c0.8,3.5,1.4,6.8,2,10c1.4,7.8,2.9,15.8,5.9,15.8h0c0.1,0,0.3,0,0.4,0c0.5-0.1,3.4-1,7.5-11.9
				c2.7-7.3,4.9-16.1,6.7-23.2l0.6-2.2c1.2-4.6,3.2-8.7,5.1-12.8c1.4-2.9,2.7-5.6,3.7-8.4c3.5-9.7,4.8-20.9,3.5-30
				c-0.6-4-1.6-7.5-3.1-10.6c-4.6-9.2-14.2-12-19.5-12.9c-2.2-0.4-4.3-0.5-6.3-0.5c-5.6,0-10.6,1.3-17,4.4c-3.3,1.6-6.5,2.4-9.6,2.4
				c-4.7,0-8.7-1.8-12.6-3.5c-3.1-1.4-6.4-2.8-10.1-3.4c-1.6-0.2-3.3-0.3-4.9-0.3c-9.6,0-18.6,3.6-23.6,9.4
				c-9.3,10.8-5.8,31.5-4.6,37.5c1.1,5.3,3.3,10,5.6,15c1.5,3.2,3,6.5,4.2,10c0.4,1.3,0.8,2.4,1.1,3.6l0.6,2.3
				c1.8,7.1,4,15.9,6.7,23.2c4.1,10.9,6.9,11.8,7.5,11.9c0.1,0,0.3,0,0.4,0c3,0,4.5-8,5.9-15.8c0.6-3.2,1.2-6.6,2-10
				c2.7-11.7,12.1-15.9,19.9-15.9c0.4,0,0.8,0,1,0C1186.8,525.6,1187.2,525.6,1187.6,525.6z"/>
			<path fill="#393A3A" d="M1140,491.1c-1.5,0-2.8-1.2-3-2.7c-0.8-8.7,0.8-15.5,4.8-20.1c4.5-5.2,10.5-5.5,10.7-5.5
				c1.7-0.1,3.1,1.2,3.1,2.9c0.1,1.6-1.2,3-2.8,3.1c-0.2,0-3.8,0.3-6.6,3.6c-2.8,3.3-3.9,8.5-3.3,15.5c0.2,1.6-1.1,3.1-2.7,3.3
				C1140.2,491.1,1140.1,491.1,1140,491.1z"/>
			<path fill="#F8C037" d="M1221.2,489c2.4,2,4.2,4.6,5.2,7.5c0.5,1.3,0.9,2.8,1.9,3.7c1.9,1.7,5.1,0.7,6.6-1.3c1.5-2,1.8-4.7,2-7.1
				c0.2-2,0.4-4,0.5-5.9c0.1-1.7,0.3-3.3-0.1-5c-0.4-1.7-1.4-3.2-2.4-4.6c-2.2-3.1-4.5-6.3-7.9-8c-2.1-1-4.4-1.4-6.8-1.7
				c-2.3-0.2-4.9-0.3-6.8,1c-1.4,0.9-2.3,2.2-2.9,3.7c-1.3,3.4-0.8,7.5,1.4,10.4C1214.3,484.9,1218.2,486.5,1221.2,489z"/>
			<path fill="#F8C037" d="M1168,497.2c0.8-1.8,0.7-4-0.4-5.7c-1.1-1.7-3.1-2.7-5-2.7c-2.3,0-4.4,1.4-5.7,3.3
				c-1.3,1.9-1.9,4.2-2.1,6.5c-0.1,1.1-0.1,2.2,0.1,3.2c0.5,2.2,2.2,4,4.2,5s4.4,1.1,6.6,0.6c1.1-1.6,1.6-3.6,1.5-5.6
				c-0.1-0.8-0.3-1.7-0.1-2.5C1167.2,498.5,1167.6,497.8,1168,497.2z"/>
			<g>
				<path fill="#393A3A" d="M1105.1,461.1c-0.4,0-0.7-0.1-1.1-0.2c-3-1.2-4.4-2.4-5.5-3.4c-1-0.9-1.7-1.5-3.7-2.3
					c-2-0.8-3-0.8-4.3-0.8c-1.5,0-3.4,0-6.4-1.2c-3-1.2-4.4-2.4-5.5-3.4c-1-0.9-1.7-1.5-3.7-2.3c-1.5-0.6-2.3-2.3-1.7-3.9
					c0.6-1.5,2.3-2.3,3.9-1.7c3,1.2,4.4,2.4,5.5,3.4c1,0.9,1.7,1.5,3.7,2.3c2,0.8,3,0.8,4.3,0.8c1.5,0,3.4,0,6.4,1.2
					c3,1.2,4.4,2.4,5.5,3.4c1,0.9,1.7,1.5,3.7,2.3c1.5,0.6,2.3,2.3,1.7,3.9C1107.5,460.4,1106.3,461.1,1105.1,461.1z"/>
				<path fill="#393A3A" d="M1076,561.9c-1.2,0-2.3-0.7-2.8-1.9c-0.6-1.5,0.2-3.3,1.7-3.9c2-0.8,2.7-1.4,3.7-2.3
					c1.1-1,2.5-2.3,5.5-3.4c3-1.2,4.9-1.2,6.4-1.2c1.3,0,2.3,0,4.3-0.8c2-0.8,2.7-1.4,3.7-2.3c1.1-1,2.5-2.3,5.5-3.4
					c1.5-0.6,3.3,0.2,3.9,1.7c0.6,1.5-0.2,3.3-1.7,3.9c-2,0.8-2.7,1.4-3.7,2.3c-1.1,1-2.5,2.3-5.5,3.4s-4.9,1.2-6.4,1.2
					c-1.3,0-2.3,0-4.3,0.8c-2,0.8-2.7,1.4-3.7,2.3c-1.1,1-2.5,2.3-5.5,3.4C1076.8,561.8,1076.4,561.9,1076,561.9z"/>
				<path fill="#393A3A" d="M1106.6,505.1c-3.2,0-5-0.7-6.4-1.2c-1.2-0.5-2.2-0.8-4.3-0.8s-3.1,0.4-4.3,0.8
					c-1.4,0.5-3.2,1.2-6.4,1.2c-3.2,0-5-0.7-6.4-1.2c-1.2-0.5-2.2-0.8-4.3-0.8c-1.7,0-3-1.3-3-3s1.3-3,3-3c3.2,0,5,0.7,6.4,1.2
					c1.2,0.5,2.2,0.8,4.3,0.8c2.1,0,3.1-0.4,4.3-0.8c1.4-0.5,3.2-1.2,6.4-1.2s5,0.7,6.4,1.2c1.2,0.5,2.2,0.8,4.3,0.8
					c1.7,0,3,1.3,3,3S1108.2,505.1,1106.6,505.1z"/>
			</g>
			<g>
				<path fill="#393A3A" d="M1265.2,461.1c-1.2,0-2.3-0.7-2.8-1.9c-0.6-1.5,0.2-3.3,1.7-3.9c2-0.8,2.7-1.4,3.7-2.3
					c1.1-1,2.5-2.3,5.5-3.4c3-1.2,4.9-1.2,6.4-1.2c1.3,0,2.3,0,4.3-0.8c2-0.8,2.7-1.4,3.7-2.3c1.1-1,2.5-2.3,5.5-3.4
					c1.5-0.6,3.3,0.2,3.9,1.7c0.6,1.5-0.2,3.3-1.7,3.9c-2,0.8-2.7,1.4-3.7,2.3c-1.1,1-2.5,2.3-5.5,3.4c-3,1.2-4.9,1.2-6.4,1.2
					c-1.3,0-2.3,0-4.3,0.8c-2,0.8-2.7,1.4-3.7,2.3c-1.1,1-2.5,2.3-5.5,3.4C1265.9,461,1265.5,461.1,1265.2,461.1z"/>
				<path fill="#393A3A" d="M1294.3,561.9c-0.4,0-0.7-0.1-1.1-0.2c-3-1.2-4.4-2.4-5.5-3.4c-1-0.9-1.7-1.5-3.7-2.3
					c-2-0.8-3-0.8-4.3-0.8c-1.5,0-3.4,0-6.4-1.2s-4.4-2.4-5.5-3.4c-1-0.9-1.7-1.5-3.7-2.3c-1.5-0.6-2.3-2.3-1.7-3.9
					c0.6-1.5,2.3-2.3,3.9-1.7c3,1.2,4.4,2.4,5.5,3.4c1,0.9,1.7,1.5,3.7,2.3c2,0.8,3,0.8,4.3,0.8c1.5,0,3.4,0,6.4,1.2
					c3,1.2,4.4,2.4,5.5,3.4c1,0.9,1.7,1.5,3.7,2.3c1.5,0.6,2.3,2.3,1.7,3.9C1296.6,561.2,1295.5,561.9,1294.3,561.9z"/>
				<path fill="#393A3A" d="M1285,505.1c-3.2,0-5-0.7-6.4-1.2c-1.2-0.5-2.2-0.8-4.3-0.8c-2.1,0-3.1,0.4-4.3,0.8
					c-1.4,0.5-3.2,1.2-6.4,1.2c-1.7,0-3-1.3-3-3s1.3-3,3-3c2.1,0,3.1-0.4,4.3-0.8c1.4-0.5,3.2-1.2,6.4-1.2c3.2,0,5,0.7,6.4,1.2
					c1.2,0.5,2.2,0.8,4.3,0.8c2.1,0,3.1-0.4,4.3-0.8c1.4-0.5,3.2-1.2,6.4-1.2c1.7,0,3,1.3,3,3s-1.3,3-3,3c-2.1,0-3.1,0.4-4.3,0.8
					C1290,504.5,1288.3,505.1,1285,505.1z"/>
			</g>
		</g>
		<g>
			<g>
				<path fill="#393A3A" d="M788.1,771.2c-0.1,0-0.3,0-0.4,0c-1.6-0.2-2.8-1.7-2.6-3.4c3.8-28.7,29.7-30.9,32.6-31
					c0.2,0,0.5,0,0.7,0c2.9,0.2,28.2,2.3,32.5,30.1c0.3,1.6-0.9,3.2-2.5,3.4c-1.6,0.3-3.2-0.9-3.4-2.5c-3.5-23.1-24.5-24.8-26.9-25
					c-2.5,0.1-23.9,1.9-27,25.8C790.8,770.1,789.6,771.2,788.1,771.2z"/>
				<path fill="#393A3A" d="M848.5,825.5h-55.1c-4.8,0-8.8-3.9-8.8-8.8v-31.5c0-1.7,1.3-3,3-3s3,1.3,3,3v31.5c0,1.5,1.2,2.8,2.8,2.8
					h52.1v-33.3c0-1.7,1.3-3,3-3s3,1.3,3,3v36.3C851.5,824.1,850.1,825.5,848.5,825.5z"/>
				<path fill="#393A3A" d="M781.8,805.6h-33.8c-5.1,0-9.2-4.1-9.2-9.2v-30c0-22.3,16.2-29.1,25.8-29.6c0.2,0,0.4,0,0.6,0
					c9.6,0.5,25.8,7.3,25.8,29.6c0,1.7-1.3,3-3,3s-3-1.3-3-3c0-22-18.1-23.5-20.1-23.6c-2,0.1-20.1,1.7-20.1,23.6v30
					c0,1.7,1.4,3.2,3.2,3.2h33.8c1.7,0,3.2-1.4,3.2-3.2v-10.3c0-1.7,1.3-3,3-3s3,1.3,3,3v10.3C790.9,801.5,786.8,805.6,781.8,805.6z
					"/>
			</g>
			<path fill="#F8C037" d="M932.1,769.4c-2.9,0-5.3,1.7-6.5,4.1h-40.1c-1.2-2.4-3.6-4.1-6.5-4.1c-2.9,0-5.3,1.7-6.5,4.1h-47.9
				c-1.2-2.4-3.6-4.1-6.5-4.1c-2.9,0-5.3,1.7-6.5,4.1h-40.5c-1.2-2.4-3.6-4.1-6.5-4.1c-4,0-7.3,3.2-7.3,7.3c0,4,3.2,7.3,7.3,7.3
				c2.9,0,5.3-1.7,6.5-4.1h40.5c1.2,2.4,3.6,4.1,6.5,4.1s5.3-1.7,6.5-4.1h47.9c1.2,2.4,3.6,4.1,6.5,4.1s5.3-1.7,6.5-4.1h40.1
				c1.2,2.4,3.6,4.1,6.5,4.1c4,0,7.3-3.2,7.3-7.3C939.4,772.6,936.1,769.4,932.1,769.4z"/>
			<g>
				<path fill="#393A3A" d="M908.9,771.2c-1.5,0-2.8-1.1-3-2.6c-3.1-23.9-24.6-25.7-27-25.8c-2.4,0.1-23.4,1.9-26.9,25
					c-0.3,1.6-1.8,2.8-3.4,2.5c-1.6-0.3-2.8-1.8-2.5-3.4c4.2-27.8,29.6-29.9,32.5-30.1c0.2,0,0.5,0,0.7,0c2.9,0.2,28.9,2.3,32.6,31
					c0.2,1.6-0.9,3.1-2.6,3.4C909.1,771.2,909,771.2,908.9,771.2z"/>
				<path fill="#393A3A" d="M903.5,825.5h-55.1c-1.7,0-3-1.3-3-3v-36.3c0-1.7,1.3-3,3-3s3,1.3,3,3v33.3h52.1c1.5,0,2.8-1.2,2.8-2.8
					v-31.5c0-1.7,1.3-3,3-3s3,1.3,3,3v31.5C912.3,821.5,908.4,825.5,903.5,825.5z"/>
				<path fill="#393A3A" d="M949,805.6h-33.8c-5.1,0-9.2-4.1-9.2-9.2v-10.3c0-1.7,1.3-3,3-3s3,1.3,3,3v10.3c0,1.7,1.4,3.2,3.2,3.2
					H949c1.7,0,3.2-1.4,3.2-3.2v-30c0-22-18.1-23.5-20.1-23.6c-2,0.1-20.1,1.7-20.1,23.6c0,1.7-1.3,3-3,3s-3-1.3-3-3
					c0-22.3,16.2-29.1,25.8-29.6c0.2,0,0.4,0,0.6,0c9.6,0.5,25.8,7.3,25.8,29.6v30C958.2,801.5,954.1,805.6,949,805.6z"/>
			</g>
		</g>
		<g>
			<g>
				<rect x="504.3" y="842" fill="#769CD1" width="26.3" height="10.2"/>
				<path fill="#393A3A" d="M529.4,867.7C529.4,867.7,529.4,867.7,529.4,867.7h-25.6c-0.8,0-1.6-0.3-2.1-0.9
					c-0.6-0.6-0.9-1.4-0.9-2.2l2.6-117.4c0-1.6,1.4-2.9,3-2.9h20.4c1.6,0,3,1.3,3,2.9l2.6,117c0,0.1,0,0.3,0,0.4
					C532.4,866.4,531,867.7,529.4,867.7z M506.8,861.7h19.5l-2.5-111.4h-14.5L506.8,861.7z"/>
				<path fill="#393A3A" d="M526.1,750.3h-19.7c-1.7,0-3-1.3-3-3v-10.2c0-1.7,1.3-3,3-3h19.7c1.7,0,3,1.3,3,3v10.2
					C529.1,749,527.7,750.3,526.1,750.3z M509.4,744.3h13.7v-4.2h-13.7V744.3z"/>
				<path fill="#393A3A" d="M516.2,740.2c-1.7,0-3-1.3-3-3v-28.9c0-1.7,1.3-3,3-3s3,1.3,3,3v28.9
					C519.2,738.8,517.9,740.2,516.2,740.2z"/>
				<path fill="#393A3A" d="M516.3,711.3c-17.5,0-31.7-14.2-31.7-31.7s14.2-31.7,31.7-31.7c17.5,0,31.7,14.2,31.7,31.7
					S533.8,711.3,516.3,711.3z M516.3,653.9c-14.2,0-25.7,11.5-25.7,25.7s11.5,25.7,25.7,25.7c14.2,0,25.7-11.5,25.7-25.7
					S530.5,653.9,516.3,653.9z"/>
				<circle fill="#769CD1" cx="516.3" cy="679.6" r="20.1"/>
			</g>
			<g>
				<rect x="572.7" y="817.2" fill="#F8C037" width="26.3" height="35.1"/>
				<path fill="#393A3A" d="M597.8,867.7C597.8,867.7,597.8,867.7,597.8,867.7h-25.6c-0.8,0-1.6-0.3-2.1-0.9
					c-0.6-0.6-0.9-1.4-0.9-2.2l2.6-117.4c0-1.6,1.4-2.9,3-2.9h20.4c1.6,0,3,1.3,3,2.9l2.6,117c0,0.1,0,0.3,0,0.4
					C600.8,866.4,599.5,867.7,597.8,867.7z M575.3,861.7h19.5l-2.5-111.4h-14.5L575.3,861.7z"/>
				<path fill="#393A3A" d="M594.6,750.3h-19.7c-1.7,0-3-1.3-3-3v-10.2c0-1.7,1.3-3,3-3h19.7c1.7,0,3,1.3,3,3v10.2
					C597.6,749,596.2,750.3,594.6,750.3z M577.8,744.3h13.7v-4.2h-13.7V744.3z"/>
				<path fill="#393A3A" d="M584.7,740.2c-1.7,0-3-1.3-3-3v-41.5l-20.3-17.2c-0.6-0.5-1-1.3-1.1-2.2c0-0.8,0.3-1.7,0.9-2.3
					l26.3-25.4c1.2-1.2,3.1-1.1,4.2,0.1s1.1,3.1-0.1,4.2l-23.9,23.1l18.9,15.9c0.7,0.6,1.1,1.4,1.1,2.3v42.9
					C587.7,738.8,586.3,740.2,584.7,740.2z"/>
			</g>
		</g>
		<g>
			<g>
				<g>
					<path fill="#769CD1" d="M1143.4,708c0,3.3,0,7.8-4.6,7.8c-5.3,0-7-7.4-7-7.7c0-0.1,0-0.1,0-0.2v-18.3c0-4.2-0.4-5.4-0.8-5.8
						c-0.2-0.2-0.6-0.1-1.3,0c-0.5,0.1-1,0.1-1.5,0.1c-3.4,0-4.8-2.4-4.9-2.5c-0.1-0.2-0.1-0.3-0.1-0.5c0-0.2,0.1-0.5,0.3-0.7
						c0.6-0.6,0.7-1.6,0.8-2.8c0.2-2.8,0.6-6.6,8.7-6.6c9.7,0,10.5,6.9,10.5,9c0,0.6-0.1,0.9-0.1,0.9l0,19.9c0,1.6,0,3,0.1,4.3
						C1143.3,706,1143.4,707,1143.4,708L1143.4,708z"/>
				</g>
				<rect x="1134" y="742.3" fill="#F8C037" width="14.4" height="124.1"/>
				<path fill="#393A3A" d="M1148.4,866.1c-1.7,0-3-1.3-3-3V742.3c0-0.7,0.3-1.5,0.8-2l16.8-18.7V673c0-1.7,1.3-3,3-3s3,1.3,3,3
					v49.8c0,0.7-0.3,1.5-0.8,2l-16.8,18.7v119.6C1151.4,864.7,1150.1,866.1,1148.4,866.1z"/>
				<path fill="#393A3A" d="M1166,716.7h-19.9c-1.7,0-3-1.3-3-3V673c0-1.7,1.3-3,3-3h19.9c1.7,0,3,1.3,3,3v40.8
					C1169,715.4,1167.7,716.7,1166,716.7z M1149.1,710.7h13.9V676h-13.9V710.7z"/>
				<g>
					<path fill="#393A3A" d="M1166,688.8h-17.6c-1.7,0-3-1.3-3-3s1.3-3,3-3h17.6c1.7,0,3,1.3,3,3S1167.7,688.8,1166,688.8z"/>
					<path fill="#393A3A" d="M1166,703.8h-17.6c-1.7,0-3-1.3-3-3s1.3-3,3-3h17.6c1.7,0,3,1.3,3,3S1167.7,703.8,1166,703.8z"/>
				</g>
			</g>
			<g>
				<path fill="#393A3A" d="M1245.5,866.1h-52c-0.8,0-1.6-0.3-2.2-0.9s-0.9-1.4-0.8-2.2l8.7-157.8c0.1-1.6,1.4-2.8,3-2.8h34.7
					c1.6,0,2.9,1.2,3,2.8l8.7,157.8c0,0.8-0.3,1.6-0.8,2.2S1246.3,866.1,1245.5,866.1z M1196.6,860.1h45.7l-8.3-151.8h-29
					L1196.6,860.1z"/>
				<path fill="#393A3A" d="M1237.1,708.3h-35c-1.7,0-3-1.3-3-3v-12.9c0-1.7,1.3-3,3-3h35c1.7,0,3,1.3,3,3v12.9
					C1240.1,707,1238.8,708.3,1237.1,708.3z M1205.1,702.3h29v-6.9h-29V702.3z"/>
				<path fill="#393A3A" d="M1229.6,695.4h-20c-1.7,0-3-1.3-3-3V673c0-1.7,1.3-3,3-3h20c1.7,0,3,1.3,3,3v19.5
					C1232.6,694.1,1231.3,695.4,1229.6,695.4z M1212.6,689.4h14V676h-14V689.4z"/>
				<path fill="#393A3A" d="M1244.8,854.1h-50.7c-1.7,0-3-1.3-3-3s1.3-3,3-3h50.7c1.7,0,3,1.3,3,3S1246.5,854.1,1244.8,854.1z"/>
				<polygon fill="#769CD1" points="1227.9,745.9 1219.5,745.9 1211.1,745.9 1206.9,822.4 1219.5,822.4 1232.1,822.4 				"/>
			</g>
			<g>
				<path fill="#393A3A" d="M1111.3,729.1h-7.1c-1.7,0-3-1.3-3-3s1.3-3,3-3h7.1c1.7,0,3,1.3,3,3S1113,729.1,1111.3,729.1z"/>
				<path fill="#393A3A" d="M1092.6,729.1h-7.1c-1.7,0-3-1.3-3-3s1.3-3,3-3h7.1c1.7,0,3,1.3,3,3S1094.2,729.1,1092.6,729.1z"/>
				<path fill="#393A3A" d="M1098.4,742c-1.7,0-3-1.3-3-3V732c0-1.7,1.3-3,3-3s3,1.3,3,3v7.1C1101.4,740.7,1100.1,742,1098.4,742z"
					/>
				<path fill="#393A3A" d="M1098.4,723.3c-1.7,0-3-1.3-3-3v-7.1c0-1.7,1.3-3,3-3s3,1.3,3,3v7.1
					C1101.4,721.9,1100.1,723.3,1098.4,723.3z"/>
			</g>
			<g>
				<path fill="#393A3A" d="M1284.8,682.6h-7.1c-1.7,0-3-1.3-3-3s1.3-3,3-3h7.1c1.7,0,3,1.3,3,3S1286.5,682.6,1284.8,682.6z"/>
				<path fill="#393A3A" d="M1266.1,682.6h-7.1c-1.7,0-3-1.3-3-3s1.3-3,3-3h7.1c1.7,0,3,1.3,3,3S1267.7,682.6,1266.1,682.6z"/>
				<path fill="#393A3A" d="M1271.9,695.5c-1.7,0-3-1.3-3-3v-7.1c0-1.7,1.3-3,3-3s3,1.3,3,3v7.1
					C1274.9,694.2,1273.5,695.5,1271.9,695.5z"/>
				<path fill="#393A3A" d="M1271.9,676.7c-1.7,0-3-1.3-3-3v-7.1c0-1.7,1.3-3,3-3s3,1.3,3,3v7.1
					C1274.9,675.4,1273.5,676.7,1271.9,676.7z"/>
			</g>
		</g>
	</g>
</g>
</svg>
